<?xml version="1.0" standalone="no"?>
<!DOCTYPE svg PUBLIC "-//W3C//DTD SVG 20010904//EN"
 "http://www.w3.org/TR/2001/REC-SVG-20010904/DTD/svg10.dtd">
<svg version="1.0" xmlns="http://www.w3.org/2000/svg"
 width="400.000000pt" height="400.000000pt" viewBox="0 0 400.000000 400.000000"
 preserveAspectRatio="xMidYMid meet">
<metadata>
Created by potrace 1.14, written by Peter Selinger 2001-2017
</metadata>
<g transform="translate(0.000000,400.000000) scale(0.100000,-0.100000)"
fill="#000000" stroke="none">
<path d="M1047 3933 c-1 0 -48 -4 -104 -7 -56 -3 -124 -11 -150 -17 -26 -6
-58 -13 -71 -15 -13 -3 -51 -15 -85 -28 -240 -91 -425 -301 -486 -552 -40
-163 -41 -199 -41 -1224 0 -1013 4 -1178 32 -1285 5 -22 11 -47 13 -55 5 -26
36 -103 58 -145 62 -121 150 -221 253 -290 32 -22 62 -44 65 -48 3 -5 12 -9
20 -10 8 -2 20 -6 27 -11 27 -17 202 -73 195 -63 -4 6 -1 7 7 2 12 -7 56 -16
90 -17 8 -1 18 -6 22 -12 6 -8 8 -8 8 0 0 11 27 13 45 3 6 -3 36 -5 67 -4 35
1 55 -2 51 -8 -4 -6 -1 -7 8 -2 7 5 459 10 1004 11 544 1 1005 4 1023 7 21 4
32 2 32 -6 0 -9 2 -9 8 0 5 7 21 15 38 17 16 3 38 7 49 9 11 3 26 -1 34 -7 12
-9 13 -8 6 3 -6 11 -3 13 13 9 12 -4 20 -2 17 2 -3 5 14 14 37 21 23 6 69 24
101 40 32 16 63 27 69 23 6 -4 8 -3 5 3 -4 6 12 23 36 39 43 30 145 131 183
181 42 56 107 190 120 246 1 4 2 8 4 10 5 7 20 89 26 147 3 30 7 73 10 95 6
55 5 2047 -1 2115 -9 101 -14 135 -34 211 -76 295 -319 525 -616 583 -16 4
-41 9 -55 11 -73 15 -271 18 -1158 19 -536 0 -974 0 -975 -1z"/>
<path d="M1039 113 c-13 -16 -12 -17 4 -4 16 13 21 21 13 21 -2 0 -10 -8 -17
-17z"/>
</g>
</svg>
